HIERARCHY
ROOT Hips
{
	OFFSET 0.000000 0.000000 0.000000
	CHANNELS 6 Xposition Yposition Zposition Xrotation Yrotation Zrotation
	JOINT LeftUpLeg_virtual
	{
		OFFSET 0.000000 0.000000 0.000000
		CHANNELS 3 Xrotation Yrotation Zrotation
		JOINT LeftUpLeg
		{
			OFFSET 13.026900 -6.336304 -1.092800
			CHANNELS 3 Xrotation Yrotation Zrotation
			JOINT LeftLeg
			{
				OFFSET 0.524474 -46.096886 9.782700
				CHANNELS 3 Xrotation Yrotation Zrotation
				JOINT LeftFoot
				{
					OFFSET -0.524474 -53.427422 -12.948200
					CHANNELS 3 Xrotation Yrotation Zrotation
					JOINT LeftToeBase
					{
						OFFSET 0.192200 -14.009700 16.364100
						CHANNELS 3 Xrotation Yrotation Zrotation
						JOINT LeftToe_End
						{
							OFFSET -1.784700 -0.561700 9.474800
							CHANNELS 3 Xrotation Yrotation Zrotation
							End Site
							{
								OFFSET 0 0 0
							}
						}
					}
				}
			}
		}
	}
	JOINT RightUpLeg_virtual
	{
		OFFSET 0.000000 0.000000 0.000000
		CHANNELS 3 Xrotation Yrotation Zrotation
		JOINT RightUpLeg
		{
			OFFSET -12.883000 -6.336304 -1.092800
			CHANNELS 3 Xrotation Yrotation Zrotation
			JOINT RightLeg
			{
				OFFSET -0.524587 -46.096825 9.782800
				CHANNELS 3 Xrotation Yrotation Zrotation
				JOINT RightFoot
				{
					OFFSET 0.524587 -53.427383 -12.948300
					CHANNELS 3 Xrotation Yrotation Zrotation
					JOINT RightToeBase
					{
						OFFSET -0.192200 -14.009700 16.364100
						CHANNELS 3 Xrotation Yrotation Zrotation
						JOINT RightToe_End
						{
							OFFSET 1.784700 -0.561700 9.474800
							CHANNELS 3 Xrotation Yrotation Zrotation
							End Site
							{
								OFFSET 0 0 0
							}
						}
					}
				}
			}
		}
	}
	JOINT Spine_virtual
	{
		OFFSET 0.000000 0.000000 0.000000
		CHANNELS 3 Xrotation Yrotation Zrotation
		JOINT Spine
		{
			OFFSET 0.072000 7.257294 -0.789700
			CHANNELS 3 Xrotation Yrotation Zrotation
			JOINT Spine1
			{
				OFFSET 0.000000 12.508769 -0.658067
				CHANNELS 3 Xrotation Yrotation Zrotation
				JOINT Spine1_split
				{
					OFFSET 0.000000 12.508769 -0.658067
					CHANNELS 3 Xrotation Yrotation Zrotation
					JOINT Spine2
					{
						OFFSET 0.000000 12.508769 -0.658067
						CHANNELS 3 Xrotation Yrotation Zrotation
						JOINT Neck_virtual
						{
							OFFSET 0.000000 0.000000 0.000000
							CHANNELS 3 Xrotation Yrotation Zrotation
							JOINT Neck
							{
								OFFSET 0.000000 14.033295 7.520400
								CHANNELS 3 Xrotation Yrotation Zrotation
								JOINT Head
								{
									OFFSET 0.000000 8.198502 5.703100
									CHANNELS 3 Xrotation Yrotation Zrotation
									JOINT HeadTop_End
									{
										OFFSET 0.000000 17.760803 13.332701
										CHANNELS 3 Xrotation Yrotation Zrotation
										End Site
										{
											OFFSET 0 0 0
										}
									}
								}
							}
						}
						JOINT LeftShoulder_virtual
						{
							OFFSET 0.000000 0.000000 0.000000
							CHANNELS 3 Xrotation Yrotation Zrotation
							JOINT LeftShoulder
							{
								OFFSET 6.292450 5.785301 -0.669000
								CHANNELS 3 Xrotation Yrotation Zrotation
								JOINT LeftShoulder_split
								{
									OFFSET 6.292450 5.785301 -0.669000
									CHANNELS 3 Xrotation Yrotation Zrotation
									JOINT LeftArm
									{
										OFFSET 13.907140 -6.093903 1.965100
										CHANNELS 3 Xrotation Yrotation Zrotation
										JOINT LeftForeArm
										{
											OFFSET 34.140198 0.000000 0.000000
											CHANNELS 3 Xrotation Yrotation Zrotation
											JOINT LeftHand
											{
												OFFSET 40.960209 0.000000 0.000000
												CHANNELS 3 Xrotation Yrotation Zrotation
												End Site
												{
													OFFSET 0 0 0
												}
											}
										}
									}
								}
							}
						}
						JOINT RightShoulder_virtual
						{
							OFFSET 0.000000 0.000000 0.000000
							CHANNELS 3 Xrotation Yrotation Zrotation
							JOINT RightShoulder
							{
								OFFSET -6.292450 5.785301 -0.669000
								CHANNELS 3 Xrotation Yrotation Zrotation
								JOINT RightShoulder_split
								{
									OFFSET -6.292450 5.785301 -0.669000
									CHANNELS 3 Xrotation Yrotation Zrotation
									JOINT RightArm
									{
										OFFSET -13.907140 -6.093903 1.965100
										CHANNELS 3 Xrotation Yrotation Zrotation
										JOINT RightForeArm
										{
											OFFSET -34.140198 0.000000 0.000000
											CHANNELS 3 Xrotation Yrotation Zrotation
											JOINT RightHand
											{
												OFFSET -40.960209 0.000000 0.000000
												CHANNELS 3 Xrotation Yrotation Zrotation
												End Site
												{
													OFFSET 0 0 0
												}
											}
										}
									}
								}
							}
						}
					}
				}
			}
		}
	}
}
MOTION
Frames: 4
Frame Time: 0.03333333
2.820204 116.536041 -3.812504 0.000000 0.000000 0.000000 -0.244253 -15.337198 -0.273579 -19.261419 20.127237 16.620210 23.907607 12.528684 -0.336800 4.739245 -1.015222 -6.327946 -3.842665 0.214986 -0.127546 0.000000 0.000000 0.000000 0.484930 -14.759602 -0.684287 -8.631380 -2.887766 1.793921 23.790596 1.931434 2.425389 -7.257871 -0.376085 -3.883162 0.319897 -0.363104 2.276760 0.000000 0.000000 0.000000 -0.980883 -18.156562 -1.641440 3.380849 -0.780156 0.264554 0.451528 -0.353833 3.217244 -0.177237 1.965590 -0.170567 0.000000 0.000000 0.000000 0.602862 -1.682730 2.763848 4.376411 -7.033608 -2.280796 5.511797 20.934226 -9.321415 0.000000 0.000000 0.000000 0.036867 -1.352009 2.948568 4.583444 6.839155 2.713155 5.415516 7.260518 -3.264390 -6.072921 -40.602049 -68.012777 -12.901324 -26.627909 -2.867605 0.000000 0.000000 0.000000 0.307615 -1.009140 3.400596 -1.628606 -1.618137 3.042870 -1.498044 4.098644 1.000030 7.137722 8.256187 77.678635 -6.167804 27.884375 5.360396 0.000000 0.000000 0.000000 
3.252393 115.466805 -4.280403 0.000000 0.000000 0.000000 -0.027493 -15.140861 -0.607455 -19.567746 20.543146 17.260059 24.131538 12.059372 -0.817364 3.833330 -0.991811 -5.566062 -2.608886 0.184385 -0.397586 0.000000 0.000000 0.000000 0.646865 -15.310339 -0.871420 -9.829499 -2.996833 1.683567 21.759454 2.096219 2.842816 -5.513121 0.696759 -2.640766 -2.586657 -0.439733 2.023636 0.000000 0.000000 0.000000 -0.993172 -19.146308 -2.083589 4.290005 -0.995748 0.324323 0.838830 -0.551734 3.183269 0.599982 1.446104 0.029838 0.000000 0.000000 0.000000 1.210428 -1.667571 2.756810 3.439382 -6.611282 -1.954448 4.415357 20.935650 -9.265716 0.000000 0.000000 0.000000 0.410074 -1.342886 2.878522 4.833031 6.794877 3.276349 5.782110 6.233359 -1.193701 -4.166221 -40.639585 -68.313804 -10.964888 -25.355197 -2.555137 0.000000 0.000000 0.000000 0.698617 -1.063010 3.382969 -1.423963 -1.108093 2.871158 -1.452972 6.031585 0.044639 6.299960 9.271584 76.723091 -4.784528 26.226569 4.342922 0.000000 0.000000 0.000000 
3.695815 114.294510 -4.522888 0.000000 0.000000 0.000000 -0.034352 -16.241396 -1.706711 -21.647974 22.519605 19.906819 25.498746 10.428590 -1.553036 3.064049 -1.051589 -6.601944 -1.717493 0.221335 -0.939262 0.000000 0.000000 0.000000 0.420496 -17.368659 -1.901606 -11.601871 -3.989936 1.377190 19.949601 2.725546 3.523812 -2.295564 3.062367 -0.371129 -4.504914 -0.295103 1.219724 0.000000 0.000000 0.000000 -1.112872 -21.130039 -2.963273 5.764133 -1.397747 0.524859 1.458159 -0.855514 2.844515 0.775761 1.221620 -0.088672 0.000000 0.000000 0.000000 2.033353 -1.750518 2.494121 1.973985 -5.800551 -1.928615 1.775238 22.144286 -9.385807 0.000000 0.000000 0.000000 1.190252 -1.404152 2.377674 5.534799 6.234583 4.302643 5.778050 6.013864 1.316434 1.374273 -42.182354 -66.498913 -11.734671 -30.006472 -4.289701 0.000000 0.000000 0.000000 1.636637 -1.190608 2.999756 -1.062104 -0.434171 2.515386 -0.867232 6.539075 -0.963898 4.141982 12.092051 75.353413 -2.845826 25.072583 3.295052 0.000000 0.000000 0.000000 
4.123648 113.477768 -4.575844 0.000000 0.000000 0.000000 -0.175397 -18.784943 -3.225725 -25.057078 25.986857 24.255646 27.146035 8.228448 -2.386171 2.751559 -1.083451 -8.813445 -2.842448 0.269282 -1.066927 0.000000 0.000000 0.000000 0.131959 -20.544794 -3.533968 -13.509814 -5.578426 0.824154 18.861767 3.494265 4.185227 0.855892 6.089684 2.351461 -4.994636 0.021339 0.159231 0.000000 0.000000 0.000000 -1.047579 -23.803074 -4.117054 7.379284 -1.919400 0.801968 2.219832 -1.216567 2.302420 0.546270 1.151998 -0.332279 0.000000 0.000000 0.000000 3.008520 -1.944931 2.058468 0.291225 -4.616037 -2.126836 -1.766858 24.200909 -9.485453 0.000000 0.000000 0.000000 2.163406 -1.552945 1.611159 6.580742 5.711733 6.073934 5.489609 5.636579 3.205056 10.851093 -44.270728 -62.486259 -16.292054 -41.376576 -9.216238 0.000000 0.000000 0.000000 2.891682 -1.403045 2.385243 -0.602646 0.212233 2.143302 -0.017769 5.385926 -1.866718 1.135250 15.446434 73.843600 -0.921517 25.908190 2.530349 0.000000 0.000000 0.000000 
